<?xml version="1.0" encoding="UTF-8" standalone="no"?>
<!DOCTYPE svg PUBLIC "-//W3C//DTD SVG 1.1//EN"
 "http://www.w3.org/Graphics/SVG/1.1/DTD/svg11.dtd">
<!-- Generated by graphviz version 2.44.1 (20200629.0846)
 -->
<!-- Title: unnamed Pages: 1 -->
<svg width="100%" height="100%" xmlns="http://www.w3.org/2000/svg" xmlns:xlink="http://www.w3.org/1999/xlink">
<script type="text/ecmascript"><![CDATA[
/**
 *  SVGPan library 1.2.2
 * ======================
 *
 * Given an unique existing element with id "viewport" (or when missing, the
 * first g-element), including the library into any SVG adds the following
 * capabilities:
 *
 *  - Mouse panning
 *  - Mouse zooming (using the wheel)
 *  - Object dragging
 *
 * You can configure the behaviour of the pan/zoom/drag with the variables
 * listed in the CONFIGURATION section of this file.
 *
 * Known issues:
 *
 *  - Zooming (while panning) on Safari has still some issues
 *
 * Releases:
 *
 * 1.2.2, Tue Aug 30 17:21:56 CEST 2011, Andrea Leofreddi
 *	- Fixed viewBox on root tag (#7)
 *	- Improved zoom speed (#2)
 *
 * 1.2.1, Mon Jul  4 00:33:18 CEST 2011, Andrea Leofreddi
 *	- Fixed a regression with mouse wheel (now working on Firefox 5)
 *	- Working with viewBox attribute (#4)
 *	- Added "use strict;" and fixed resulting warnings (#5)
 *	- Added configuration variables, dragging is disabled by default (#3)
 *
 * 1.2, Sat Mar 20 08:42:50 GMT 2010, Zeng Xiaohui
 *	Fixed a bug with browser mouse handler interaction
 *
 * 1.1, Wed Feb  3 17:39:33 GMT 2010, Zeng Xiaohui
 *	Updated the zoom code to support the mouse wheel on Safari/Chrome
 *
 * 1.0, Andrea Leofreddi
 *	First release
 *
 * This code is licensed under the following BSD license:
 *
 * Copyright 2009-2017 Andrea Leofreddi <a.leofreddi@vleo.net>. All rights reserved.
 *
 * Redistribution and use in source and binary forms, with or without modification, are
 * permitted provided that the following conditions are met:
 *
 *    1. Redistributions of source code must retain the above copyright
 *       notice, this list of conditions and the following disclaimer.
 *    2. Redistributions in binary form must reproduce the above copyright
 *       notice, this list of conditions and the following disclaimer in the
 *       documentation and/or other materials provided with the distribution.
 *    3. Neither the name of the copyright holder nor the names of its
 *       contributors may be used to endorse or promote products derived from
 *       this software without specific prior written permission.
 *
 * THIS SOFTWARE IS PROVIDED BY COPYRIGHT HOLDERS AND CONTRIBUTORS ''AS IS'' AND ANY EXPRESS
 * OR IMPLIED WARRANTIES, INCLUDING, BUT NOT LIMITED TO, THE IMPLIED WARRANTIES OF MERCHANTABILITY
 * AND FITNESS FOR A PARTICULAR PURPOSE ARE DISCLAIMED. IN NO EVENT SHALL COPYRIGHT HOLDERS OR
 * CONTRIBUTORS BE LIABLE FOR ANY DIRECT, INDIRECT, INCIDENTAL, SPECIAL, EXEMPLARY, OR
 * CONSEQUENTIAL DAMAGES (INCLUDING, BUT NOT LIMITED TO, PROCUREMENT OF SUBSTITUTE GOODS OR
 * SERVICES; LOSS OF USE, DATA, OR PROFITS; OR BUSINESS INTERRUPTION) HOWEVER CAUSED AND ON
 * ANY THEORY OF LIABILITY, WHETHER IN CONTRACT, STRICT LIABILITY, OR TORT (INCLUDING
 * NEGLIGENCE OR OTHERWISE) ARISING IN ANY WAY OUT OF THE USE OF THIS SOFTWARE, EVEN IF
 * ADVISED OF THE POSSIBILITY OF SUCH DAMAGE.
 *
 * The views and conclusions contained in the software and documentation are those of the
 * authors and should not be interpreted as representing official policies, either expressed
 * or implied, of Andrea Leofreddi.
 */

"use strict";

/// CONFIGURATION
/// ====>

var enablePan = 1; // 1 or 0: enable or disable panning (default enabled)
var enableZoom = 1; // 1 or 0: enable or disable zooming (default enabled)
var enableDrag = 0; // 1 or 0: enable or disable dragging (default disabled)
var zoomScale = 0.2; // Zoom sensitivity

/// <====
/// END OF CONFIGURATION

var root = document.documentElement;

var state = 'none', svgRoot = null, stateTarget, stateOrigin, stateTf;

setupHandlers(root);

/**
 * Register handlers
 */
function setupHandlers(root){
	setAttributes(root, {
		"onmouseup" : "handleMouseUp(evt)",
		"onmousedown" : "handleMouseDown(evt)",
		"onmousemove" : "handleMouseMove(evt)",
		//"onmouseout" : "handleMouseUp(evt)", // Decomment this to stop the pan functionality when dragging out of the SVG element
	});

	if(navigator.userAgent.toLowerCase().indexOf('webkit') >= 0)
		window.addEventListener('mousewheel', handleMouseWheel, false); // Chrome/Safari
	else
		window.addEventListener('DOMMouseScroll', handleMouseWheel, false); // Others
}

/**
 * Retrieves the root element for SVG manipulation. The element is then cached into the svgRoot global variable.
 */
function getRoot(root) {
	if(svgRoot == null) {
		var r = root.getElementById("viewport") ? root.getElementById("viewport") : root.documentElement, t = r;

		while(t != root) {
			if(t.getAttribute("viewBox")) {
				setCTM(r, t.getCTM());

				t.removeAttribute("viewBox");
			}

			t = t.parentNode;
		}

		svgRoot = r;
	}

	return svgRoot;
}

/**
 * Instance an SVGPoint object with given event coordinates.
 */
function getEventPoint(evt) {
	var p = root.createSVGPoint();

	p.x = evt.clientX;
	p.y = evt.clientY;

	return p;
}

/**
 * Sets the current transform matrix of an element.
 */
function setCTM(element, matrix) {
	var s = "matrix(" + matrix.a + "," + matrix.b + "," + matrix.c + "," + matrix.d + "," + matrix.e + "," + matrix.f + ")";

	element.setAttribute("transform", s);
}

/**
 * Dumps a matrix to a string (useful for debug).
 */
function dumpMatrix(matrix) {
	var s = "[ " + matrix.a + ", " + matrix.c + ", " + matrix.e + "\n  " + matrix.b + ", " + matrix.d + ", " + matrix.f + "\n  0, 0, 1 ]";

	return s;
}

/**
 * Sets attributes of an element.
 */
function setAttributes(element, attributes){
	for (var i in attributes)
		element.setAttributeNS(null, i, attributes[i]);
}

/**
 * Handle mouse wheel event.
 */
function handleMouseWheel(evt) {
	if(!enableZoom)
		return;

	if(evt.preventDefault)
		evt.preventDefault();

	evt.returnValue = false;

	var svgDoc = evt.target.ownerDocument;

	var delta;

	if(evt.wheelDelta)
		delta = evt.wheelDelta / 360; // Chrome/Safari
	else
		delta = evt.detail / -9; // Mozilla

	var z = Math.pow(1 + zoomScale, delta);

	var g = getRoot(svgDoc);
	
	var p = getEventPoint(evt);

	p = p.matrixTransform(g.getCTM().inverse());

	// Compute new scale matrix in current mouse position
	var k = root.createSVGMatrix().translate(p.x, p.y).scale(z).translate(-p.x, -p.y);

        setCTM(g, g.getCTM().multiply(k));

	if(typeof(stateTf) == "undefined")
		stateTf = g.getCTM().inverse();

	stateTf = stateTf.multiply(k.inverse());
}

/**
 * Handle mouse move event.
 */
function handleMouseMove(evt) {
	if(evt.preventDefault)
		evt.preventDefault();

	evt.returnValue = false;

	var svgDoc = evt.target.ownerDocument;

	var g = getRoot(svgDoc);

	if(state == 'pan' && enablePan) {
		// Pan mode
		var p = getEventPoint(evt).matrixTransform(stateTf);

		setCTM(g, stateTf.inverse().translate(p.x - stateOrigin.x, p.y - stateOrigin.y));
	} else if(state == 'drag' && enableDrag) {
		// Drag mode
		var p = getEventPoint(evt).matrixTransform(g.getCTM().inverse());

		setCTM(stateTarget, root.createSVGMatrix().translate(p.x - stateOrigin.x, p.y - stateOrigin.y).multiply(g.getCTM().inverse()).multiply(stateTarget.getCTM()));

		stateOrigin = p;
	}
}

/**
 * Handle click event.
 */
function handleMouseDown(evt) {
	if(evt.preventDefault)
		evt.preventDefault();

	evt.returnValue = false;

	var svgDoc = evt.target.ownerDocument;

	var g = getRoot(svgDoc);

	if(
		evt.target.tagName == "svg"
		|| !enableDrag // Pan anyway when drag is disabled and the user clicked on an element
	) {
		// Pan mode
		state = 'pan';

		stateTf = g.getCTM().inverse();

		stateOrigin = getEventPoint(evt).matrixTransform(stateTf);
	} else {
		// Drag mode
		state = 'drag';

		stateTarget = evt.target;

		stateTf = g.getCTM().inverse();

		stateOrigin = getEventPoint(evt).matrixTransform(stateTf);
	}
}

/**
 * Handle mouse button release event.
 */
function handleMouseUp(evt) {
	if(evt.preventDefault)
		evt.preventDefault();

	evt.returnValue = false;

	var svgDoc = evt.target.ownerDocument;

	if(state == 'pan' || state == 'drag') {
		// Quit pan mode
		state = '';
	}
}
]]></script><g id="viewport" transform="scale(0.5,0.5) translate(0,0)"><g id="graph0" class="graph" transform="scale(1 1) rotate(0) translate(4 1576)">
<title>unnamed</title>
<polygon fill="white" stroke="transparent" points="-4,4 -4,-1576 986,-1576 986,4 -4,4"/>
<g id="clust1" class="cluster">
<title>cluster_L</title>
<polygon fill="none" stroke="black" points="8,-1468 8,-1564 468,-1564 468,-1468 8,-1468"/>
</g>
<!-- Type: alloc_objects -->
<g id="node1" class="node">
<title>Type: alloc_objects</title>
<polygon fill="#f8f8f8" stroke="black" points="459.5,-1556 16.5,-1556 16.5,-1476 459.5,-1476 459.5,-1556"/>
<text text-anchor="start" x="24.5" y="-1539.2" font-family="Times,serif" font-size="16.00">Type: alloc_objects</text>
<text text-anchor="start" x="24.5" y="-1521.2" font-family="Times,serif" font-size="16.00">Time: Nov 17, 2020 at 11:39am (+06)</text>
<text text-anchor="start" x="24.5" y="-1503.2" font-family="Times,serif" font-size="16.00">Showing nodes accounting for 3903740, 99.42% of 3926676 total</text>
<text text-anchor="start" x="24.5" y="-1485.2" font-family="Times,serif" font-size="16.00">Dropped 34 nodes (cum &lt;= 19633)</text>
</g>
<!-- N1 -->
<g id="node1" class="node">
<title>N1</title>
<g id="a_node1"><a xlink:title="net/http.(*conn).serve (3926578)">
<polygon fill="#edd5d5" stroke="#b20000" points="562,-1538 478,-1538 478,-1494 562,-1494 562,-1538"/>
<text text-anchor="middle" x="520" y="-1527.6" font-family="Times,serif" font-size="8.00">http</text>
<text text-anchor="middle" x="520" y="-1518.6" font-family="Times,serif" font-size="8.00">(*conn)</text>
<text text-anchor="middle" x="520" y="-1509.6" font-family="Times,serif" font-size="8.00">serve</text>
<text text-anchor="middle" x="520" y="-1500.6" font-family="Times,serif" font-size="8.00">0 of 3926578 (100%)</text>
</a>
</g>
</g>
<!-- N11 -->
<g id="node11" class="node">
<title>N11</title>
<g id="a_node11"><a xlink:title="net/http.serverHandler.ServeHTTP (3922096)">
<polygon fill="#edd5d5" stroke="#b20000" points="565,-1425 475,-1425 475,-1381 565,-1381 565,-1425"/>
<text text-anchor="middle" x="520" y="-1414.6" font-family="Times,serif" font-size="8.00">http</text>
<text text-anchor="middle" x="520" y="-1405.6" font-family="Times,serif" font-size="8.00">serverHandler</text>
<text text-anchor="middle" x="520" y="-1396.6" font-family="Times,serif" font-size="8.00">ServeHTTP</text>
<text text-anchor="middle" x="520" y="-1387.6" font-family="Times,serif" font-size="8.00">0 of 3922096 (99.88%)</text>
</a>
</g>
</g>
<!-- N1&#45;&gt;N11 -->
<g id="edge11" class="edge">
<title>N1&#45;&gt;N11</title>
<g id="a_edge11"><a xlink:title="net/http.(*conn).serve &#45;&gt; net/http.serverHandler.ServeHTTP (3922096)">
<path fill="none" stroke="#b20000" stroke-width="5" d="M520,-1493.86C520,-1477.27 520,-1453.93 520,-1435.2"/>
<polygon fill="#b20000" stroke="#b20000" stroke-width="5" points="524.38,-1435.06 520,-1425.06 515.63,-1435.06 524.38,-1435.06"/>
</a>
</g>
<g id="a_edge11&#45;label"><a xlink:title="net/http.(*conn).serve &#45;&gt; net/http.serverHandler.ServeHTTP (3922096)">
<text text-anchor="middle" x="546" y="-1446.8" font-family="Times,serif" font-size="14.00"> 3922096</text>
</a>
</g>
</g>
<!-- N2 -->
<g id="node2" class="node">
<title>N2</title>
<g id="a_node2"><a xlink:title="reflect.(*structType).Field (1671193)">
<polygon fill="#eddad5" stroke="#b22800" points="816,-333 620,-333 620,-221 816,-221 816,-333"/>
<text text-anchor="middle" x="718" y="-309.8" font-family="Times,serif" font-size="24.00">reflect</text>
<text text-anchor="middle" x="718" y="-283.8" font-family="Times,serif" font-size="24.00">(*structType)</text>
<text text-anchor="middle" x="718" y="-257.8" font-family="Times,serif" font-size="24.00">Field</text>
<text text-anchor="middle" x="718" y="-231.8" font-family="Times,serif" font-size="24.00">1671193 (42.56%)</text>
</a>
</g>
</g>
<!-- NN2_0 -->
<g id="NN2_0" class="node">
<title>NN2_0</title>
<g id="a_NN2_0"><a xlink:title="1671193">
<polygon fill="#f8f8f8" stroke="black" points="745,-146.5 695,-146.5 691,-142.5 691,-110.5 741,-110.5 745,-114.5 745,-146.5"/>
<polyline fill="none" stroke="black" points="741,-142.5 691,-142.5 "/>
<polyline fill="none" stroke="black" points="741,-142.5 741,-110.5 "/>
<polyline fill="none" stroke="black" points="741,-142.5 745,-146.5 "/>
<text text-anchor="middle" x="718" y="-126.6" font-family="Times,serif" font-size="8.00">16B</text>
</a>
</g>
</g>
<!-- N2&#45;&gt;NN2_0 -->
<g id="edge1" class="edge">
<title>N2&#45;&gt;NN2_0</title>
<g id="a_edge1"><a xlink:title="1671193">
<path fill="none" stroke="black" d="M718,-220.61C718,-198.77 718,-174.67 718,-156.75"/>
<polygon fill="black" stroke="black" points="721.5,-156.71 718,-146.71 714.5,-156.71 721.5,-156.71"/>
</a>
</g>
<g id="a_edge1&#45;label"><a xlink:title="1671193">
<text text-anchor="middle" x="744" y="-191.8" font-family="Times,serif" font-size="14.00"> 1671193</text>
</a>
</g>
</g>
<!-- N3 -->
<g id="node3" class="node">
<title>N3</title>
<g id="a_node3"><a xlink:title="main.handle (3922096)">
<polygon fill="#edd5d5" stroke="#b20000" points="605.5,-1140 434.5,-1140 434.5,-1052 605.5,-1052 605.5,-1140"/>
<text text-anchor="middle" x="520" y="-1121.6" font-family="Times,serif" font-size="18.00">main</text>
<text text-anchor="middle" x="520" y="-1101.6" font-family="Times,serif" font-size="18.00">handle</text>
<text text-anchor="middle" x="520" y="-1081.6" font-family="Times,serif" font-size="18.00">620282 (15.80%)</text>
<text text-anchor="middle" x="520" y="-1061.6" font-family="Times,serif" font-size="18.00">of 3922096 (99.88%)</text>
</a>
</g>
</g>
<!-- NN3_0 -->
<g id="NN3_0" class="node">
<title>NN3_0</title>
<g id="a_NN3_0"><a xlink:title="294934">
<polygon fill="#f8f8f8" stroke="black" points="399,-1001 349,-1001 345,-997 345,-965 395,-965 399,-969 399,-1001"/>
<polyline fill="none" stroke="black" points="395,-997 345,-997 "/>
<polyline fill="none" stroke="black" points="395,-997 395,-965 "/>
<polyline fill="none" stroke="black" points="395,-997 399,-1001 "/>
<text text-anchor="middle" x="372" y="-981.1" font-family="Times,serif" font-size="8.00">16B..128B</text>
</a>
</g>
</g>
<!-- N3&#45;&gt;NN3_0 -->
<g id="edge2" class="edge">
<title>N3&#45;&gt;NN3_0</title>
<g id="a_edge2"><a xlink:title="294934">
<path fill="none" stroke="black" d="M445.65,-1051.96C437.13,-1046.22 428.73,-1040.17 421,-1034 411.55,-1026.45 402.04,-1017.21 393.94,-1008.74"/>
<polygon fill="black" stroke="black" points="396.33,-1006.17 386.95,-1001.25 391.22,-1010.95 396.33,-1006.17"/>
</a>
</g>
<g id="a_edge2&#45;label"><a xlink:title="294934">
<text text-anchor="middle" x="443.5" y="-1022.8" font-family="Times,serif" font-size="14.00"> 294934</text>
</a>
</g>
</g>
<!-- NN3_1 -->
<g id="NN3_1" class="node">
<title>NN3_1</title>
<g id="a_NN3_1"><a xlink:title="88629">
<polygon fill="#f8f8f8" stroke="black" points="475,-1001 421,-1001 417,-997 417,-965 471,-965 475,-969 475,-1001"/>
<polyline fill="none" stroke="black" points="471,-997 417,-997 "/>
<polyline fill="none" stroke="black" points="471,-997 471,-965 "/>
<polyline fill="none" stroke="black" points="471,-997 475,-1001 "/>
<text text-anchor="middle" x="446" y="-981.1" font-family="Times,serif" font-size="8.00">88kB..112kB</text>
</a>
</g>
</g>
<!-- N3&#45;&gt;NN3_1 -->
<g id="edge3" class="edge">
<title>N3&#45;&gt;NN3_1</title>
<g id="a_edge3"><a xlink:title="88629">
<path fill="none" stroke="black" d="M489.99,-1051.8C485.93,-1045.84 481.84,-1039.78 478,-1034 472.78,-1026.14 467.2,-1017.51 462.19,-1009.66"/>
<polygon fill="black" stroke="black" points="465.14,-1007.78 456.82,-1001.22 459.23,-1011.53 465.14,-1007.78"/>
</a>
</g>
<g id="a_edge3&#45;label"><a xlink:title="88629">
<text text-anchor="middle" x="497" y="-1022.8" font-family="Times,serif" font-size="14.00"> 88629</text>
</a>
</g>
</g>
<!-- NN3_2 -->
<g id="NN3_2" class="node">
<title>NN3_2</title>
<g id="a_NN3_2"><a xlink:title="67242">
<polygon fill="#f8f8f8" stroke="black" points="547,-1001 497,-1001 493,-997 493,-965 543,-965 547,-969 547,-1001"/>
<polyline fill="none" stroke="black" points="543,-997 493,-997 "/>
<polyline fill="none" stroke="black" points="543,-997 543,-965 "/>
<polyline fill="none" stroke="black" points="543,-997 547,-1001 "/>
<text text-anchor="middle" x="520" y="-981.1" font-family="Times,serif" font-size="8.00">40kB..56kB</text>
</a>
</g>
</g>
<!-- N3&#45;&gt;NN3_2 -->
<g id="edge4" class="edge">
<title>N3&#45;&gt;NN3_2</title>
<g id="a_edge4"><a xlink:title="67242">
<path fill="none" stroke="black" d="M520,-1051.77C520,-1038.25 520,-1023.71 520,-1011.58"/>
<polygon fill="black" stroke="black" points="523.5,-1011.22 520,-1001.22 516.5,-1011.22 523.5,-1011.22"/>
</a>
</g>
<g id="a_edge4&#45;label"><a xlink:title="67242">
<text text-anchor="middle" x="539" y="-1022.8" font-family="Times,serif" font-size="14.00"> 67242</text>
</a>
</g>
</g>
<!-- NN3_3 -->
<g id="NN3_3" class="node">
<title>NN3_3</title>
<g id="a_NN3_3"><a xlink:title="65614">
<polygon fill="#f8f8f8" stroke="black" points="619,-1001 569,-1001 565,-997 565,-965 615,-965 619,-969 619,-1001"/>
<polyline fill="none" stroke="black" points="615,-997 565,-997 "/>
<polyline fill="none" stroke="black" points="615,-997 615,-965 "/>
<polyline fill="none" stroke="black" points="615,-997 619,-1001 "/>
<text text-anchor="middle" x="592" y="-981.1" font-family="Times,serif" font-size="8.00">64kB..80kB</text>
</a>
</g>
</g>
<!-- N3&#45;&gt;NN3_3 -->
<g id="edge5" class="edge">
<title>N3&#45;&gt;NN3_3</title>
<g id="a_edge5"><a xlink:title="65614">
<path fill="none" stroke="black" d="M550.17,-1051.9C554.2,-1045.93 558.24,-1039.84 562,-1034 566.96,-1026.29 572.17,-1017.78 576.82,-1010"/>
<polygon fill="black" stroke="black" points="579.9,-1011.67 581.99,-1001.29 573.88,-1008.1 579.9,-1011.67"/>
</a>
</g>
<g id="a_edge5&#45;label"><a xlink:title="65614">
<text text-anchor="middle" x="591" y="-1022.8" font-family="Times,serif" font-size="14.00"> 65614</text>
</a>
</g>
</g>
<!-- N6 -->
<g id="node6" class="node">
<title>N6</title>
<g id="a_node6"><a xlink:title="fmt.Sprintf (3300790)">
<polygon fill="#edd6d5" stroke="#b20900" points="728,-928 582,-928 582,-852 728,-852 728,-928"/>
<text text-anchor="middle" x="655" y="-912" font-family="Times,serif" font-size="15.00">fmt</text>
<text text-anchor="middle" x="655" y="-895" font-family="Times,serif" font-size="15.00">Sprintf</text>
<text text-anchor="middle" x="655" y="-878" font-family="Times,serif" font-size="15.00">311334 (7.93%)</text>
<text text-anchor="middle" x="655" y="-861" font-family="Times,serif" font-size="15.00">of 3300790 (84.06%)</text>
</a>
</g>
</g>
<!-- N3&#45;&gt;N6 -->
<g id="edge14" class="edge">
<title>N3&#45;&gt;N6</title>
<g id="a_edge14"><a xlink:title="main.handle &#45;&gt; fmt.Sprintf (3300790)">
<path fill="none" stroke="#b20900" stroke-width="5" d="M595.77,-1051.89C602.4,-1046.38 608.62,-1040.41 614,-1034 636.6,-1007.07 646.76,-968.35 651.31,-937.99"/>
<polygon fill="#b20900" stroke="#b20900" stroke-width="5" points="655.66,-938.54 652.66,-928.05 646.98,-937.37 655.66,-938.54"/>
</a>
</g>
<g id="a_edge14&#45;label"><a xlink:title="main.handle &#45;&gt; fmt.Sprintf (3300790)">
<text text-anchor="middle" x="672" y="-979.3" font-family="Times,serif" font-size="14.00"> 3300790</text>
</a>
</g>
</g>
<!-- N4 -->
<g id="node4" class="node">
<title>N4</title>
<g id="a_node4"><a xlink:title="fmt.(*pp).printValue (2976220)">
<polygon fill="#edd7d5" stroke="#b20e00" points="763,-538 673,-538 673,-494 763,-494 763,-538"/>
<text text-anchor="middle" x="718" y="-527.6" font-family="Times,serif" font-size="8.00">fmt</text>
<text text-anchor="middle" x="718" y="-518.6" font-family="Times,serif" font-size="8.00">(*pp)</text>
<text text-anchor="middle" x="718" y="-509.6" font-family="Times,serif" font-size="8.00">printValue</text>
<text text-anchor="middle" x="718" y="-500.6" font-family="Times,serif" font-size="8.00">0 of 2976220 (75.79%)</text>
</a>
</g>
</g>
<!-- N12 -->
<g id="node12" class="node">
<title>N12</title>
<g id="a_node12"><a xlink:title="reflect.(*rtype).Field (1671193)">
<polygon fill="#eddad5" stroke="#b22800" points="763,-428 673,-428 673,-384 763,-384 763,-428"/>
<text text-anchor="middle" x="718" y="-417.6" font-family="Times,serif" font-size="8.00">reflect</text>
<text text-anchor="middle" x="718" y="-408.6" font-family="Times,serif" font-size="8.00">(*rtype)</text>
<text text-anchor="middle" x="718" y="-399.6" font-family="Times,serif" font-size="8.00">Field</text>
<text text-anchor="middle" x="718" y="-390.6" font-family="Times,serif" font-size="8.00">0 of 1671193 (42.56%)</text>
</a>
</g>
</g>
<!-- N4&#45;&gt;N12 -->
<g id="edge18" class="edge">
<title>N4&#45;&gt;N12</title>
<g id="a_edge18"><a xlink:title="fmt.(*pp).printValue &#45;&gt; reflect.(*rtype).Field (1671193)">
<path fill="none" stroke="#b22800" stroke-width="3" d="M718,-493.92C718,-478.09 718,-456.15 718,-438.27"/>
<polygon fill="#b22800" stroke="#b22800" stroke-width="3" points="721.5,-438.03 718,-428.03 714.5,-438.03 721.5,-438.03"/>
</a>
</g>
<g id="a_edge18&#45;label"><a xlink:title="fmt.(*pp).printValue &#45;&gt; reflect.(*rtype).Field (1671193)">
<text text-anchor="middle" x="744" y="-457.3" font-family="Times,serif" font-size="14.00"> 1671193</text>
</a>
</g>
</g>
<!-- N13 -->
<g id="node13" class="node">
<title>N13</title>
<g id="a_node13"><a xlink:title="reflect.Value.Interface (1300931)">
<polygon fill="#eddcd5" stroke="#b23200" points="897,-428 807,-428 807,-384 897,-384 897,-428"/>
<text text-anchor="middle" x="852" y="-417.6" font-family="Times,serif" font-size="8.00">reflect</text>
<text text-anchor="middle" x="852" y="-408.6" font-family="Times,serif" font-size="8.00">Value</text>
<text text-anchor="middle" x="852" y="-399.6" font-family="Times,serif" font-size="8.00">Interface</text>
<text text-anchor="middle" x="852" y="-390.6" font-family="Times,serif" font-size="8.00">0 of 1300931 (33.13%)</text>
</a>
</g>
</g>
<!-- N4&#45;&gt;N13 -->
<g id="edge20" class="edge">
<title>N4&#45;&gt;N13</title>
<g id="a_edge20"><a xlink:title="fmt.(*pp).printValue &#45;&gt; reflect.Value.Interface (1300931)">
<path fill="none" stroke="#b23200" stroke-width="2" d="M749.57,-493.97C757.67,-488.31 766.27,-482.08 774,-476 790.31,-463.18 807.67,-447.99 821.86,-435.13"/>
<polygon fill="#b23200" stroke="#b23200" stroke-width="2" points="824.37,-437.58 829.39,-428.25 819.65,-432.41 824.37,-437.58"/>
</a>
</g>
<g id="a_edge20&#45;label"><a xlink:title="fmt.(*pp).printValue &#45;&gt; reflect.Value.Interface (1300931)">
<text text-anchor="middle" x="836" y="-464.8" font-family="Times,serif" font-size="14.00"> 1300931</text>
<text text-anchor="middle" x="836" y="-449.8" font-family="Times,serif" font-size="14.00"> (inline)</text>
</a>
</g>
</g>
<!-- N5 -->
<g id="node5" class="node">
<title>N5</title>
<g id="a_node5"><a xlink:title="reflect.packEface (1300931)">
<polygon fill="#eddcd5" stroke="#b23200" points="972.5,-170 785.5,-170 785.5,-87 972.5,-87 972.5,-170"/>
<text text-anchor="middle" x="879" y="-147.6" font-family="Times,serif" font-size="23.00">reflect</text>
<text text-anchor="middle" x="879" y="-122.6" font-family="Times,serif" font-size="23.00">packEface</text>
<text text-anchor="middle" x="879" y="-97.6" font-family="Times,serif" font-size="23.00">1300931 (33.13%)</text>
</a>
</g>
</g>
<!-- NN5_0 -->
<g id="NN5_0" class="node">
<title>NN5_0</title>
<g id="a_NN5_0"><a xlink:title="688138">
<polygon fill="#f8f8f8" stroke="black" points="834,-36 784,-36 780,-32 780,0 830,0 834,-4 834,-36"/>
<polyline fill="none" stroke="black" points="830,-32 780,-32 "/>
<polyline fill="none" stroke="black" points="830,-32 830,0 "/>
<polyline fill="none" stroke="black" points="830,-32 834,-36 "/>
<text text-anchor="middle" x="807" y="-16.1" font-family="Times,serif" font-size="8.00">16B</text>
</a>
</g>
</g>
<!-- N5&#45;&gt;NN5_0 -->
<g id="edge6" class="edge">
<title>N5&#45;&gt;NN5_0</title>
<g id="a_edge6"><a xlink:title="688138">
<path fill="none" stroke="black" d="M842.51,-86.68C838.05,-80.92 833.75,-74.93 830,-69 825.4,-61.73 821.19,-53.4 817.67,-45.64"/>
<polygon fill="black" stroke="black" points="820.79,-44.03 813.6,-36.25 814.37,-46.82 820.79,-44.03"/>
</a>
</g>
<g id="a_edge6&#45;label"><a xlink:title="688138">
<text text-anchor="middle" x="852.5" y="-57.8" font-family="Times,serif" font-size="14.00"> 688138</text>
</a>
</g>
</g>
<!-- NN5_1 -->
<g id="NN5_1" class="node">
<title>NN5_1</title>
<g id="a_NN5_1"><a xlink:title="311305">
<polygon fill="#f8f8f8" stroke="black" points="906,-36 856,-36 852,-32 852,0 902,0 906,-4 906,-36"/>
<polyline fill="none" stroke="black" points="902,-32 852,-32 "/>
<polyline fill="none" stroke="black" points="902,-32 902,0 "/>
<polyline fill="none" stroke="black" points="902,-32 906,-36 "/>
<text text-anchor="middle" x="879" y="-16.1" font-family="Times,serif" font-size="8.00">32B</text>
</a>
</g>
</g>
<!-- N5&#45;&gt;NN5_1 -->
<g id="edge7" class="edge">
<title>N5&#45;&gt;NN5_1</title>
<g id="a_edge7"><a xlink:title="311305">
<path fill="none" stroke="black" d="M879,-86.79C879,-73.21 879,-58.42 879,-46.13"/>
<polygon fill="black" stroke="black" points="882.5,-46.07 879,-36.07 875.5,-46.07 882.5,-46.07"/>
</a>
</g>
<g id="a_edge7&#45;label"><a xlink:title="311305">
<text text-anchor="middle" x="901.5" y="-57.8" font-family="Times,serif" font-size="14.00"> 311305</text>
</a>
</g>
</g>
<!-- NN5_2 -->
<g id="NN5_2" class="node">
<title>NN5_2</title>
<g id="a_NN5_2"><a xlink:title="301488">
<polygon fill="#f8f8f8" stroke="black" points="978,-36 928,-36 924,-32 924,0 974,0 978,-4 978,-36"/>
<polyline fill="none" stroke="black" points="974,-32 924,-32 "/>
<polyline fill="none" stroke="black" points="974,-32 974,0 "/>
<polyline fill="none" stroke="black" points="974,-32 978,-36 "/>
<text text-anchor="middle" x="951" y="-16.1" font-family="Times,serif" font-size="8.00">80B</text>
</a>
</g>
</g>
<!-- N5&#45;&gt;NN5_2 -->
<g id="edge8" class="edge">
<title>N5&#45;&gt;NN5_2</title>
<g id="a_edge8"><a xlink:title="301488">
<path fill="none" stroke="black" d="M915.49,-86.68C919.95,-80.92 924.25,-74.93 928,-69 932.6,-61.73 936.81,-53.4 940.33,-45.64"/>
<polygon fill="black" stroke="black" points="943.63,-46.82 944.4,-36.25 937.21,-44.03 943.63,-46.82"/>
</a>
</g>
<g id="a_edge8&#45;label"><a xlink:title="301488">
<text text-anchor="middle" x="959.5" y="-57.8" font-family="Times,serif" font-size="14.00"> 301488</text>
</a>
</g>
</g>
<!-- NN6_0 -->
<g id="NN6_0" class="node">
<title>NN6_0</title>
<g id="a_NN6_0"><a xlink:title="311334">
<polygon fill="#f8f8f8" stroke="black" points="682,-801 632,-801 628,-797 628,-765 678,-765 682,-769 682,-801"/>
<polyline fill="none" stroke="black" points="678,-797 628,-797 "/>
<polyline fill="none" stroke="black" points="678,-797 678,-765 "/>
<polyline fill="none" stroke="black" points="678,-797 682,-801 "/>
<text text-anchor="middle" x="655" y="-781.1" font-family="Times,serif" font-size="8.00">128B</text>
</a>
</g>
</g>
<!-- N6&#45;&gt;NN6_0 -->
<g id="edge9" class="edge">
<title>N6&#45;&gt;NN6_0</title>
<g id="a_edge9"><a xlink:title="311334">
<path fill="none" stroke="black" d="M655,-851.98C655,-838.56 655,-823.65 655,-811.22"/>
<polygon fill="black" stroke="black" points="658.5,-811.04 655,-801.04 651.5,-811.04 658.5,-811.04"/>
</a>
</g>
<g id="a_edge9&#45;label"><a xlink:title="311334">
<text text-anchor="middle" x="677.5" y="-822.8" font-family="Times,serif" font-size="14.00"> 311334</text>
</a>
</g>
</g>
<!-- N7 -->
<g id="node7" class="node">
<title>N7</title>
<g id="a_node7"><a xlink:title="fmt.(*pp).doPrintf (2976220)">
<polygon fill="#edd7d5" stroke="#b20e00" points="763,-728 673,-728 673,-684 763,-684 763,-728"/>
<text text-anchor="middle" x="718" y="-717.6" font-family="Times,serif" font-size="8.00">fmt</text>
<text text-anchor="middle" x="718" y="-708.6" font-family="Times,serif" font-size="8.00">(*pp)</text>
<text text-anchor="middle" x="718" y="-699.6" font-family="Times,serif" font-size="8.00">doPrintf</text>
<text text-anchor="middle" x="718" y="-690.6" font-family="Times,serif" font-size="8.00">0 of 2976220 (75.79%)</text>
</a>
</g>
</g>
<!-- N6&#45;&gt;N7 -->
<g id="edge17" class="edge">
<title>N6&#45;&gt;N7</title>
<g id="a_edge17"><a xlink:title="fmt.Sprintf &#45;&gt; fmt.(*pp).doPrintf (2976220)">
<path fill="none" stroke="#b20e00" stroke-width="4" d="M693.37,-851.78C697.53,-846.18 701.24,-840.19 704,-834 717.56,-803.54 720.02,-765.07 719.74,-738.5"/>
<polygon fill="#b20e00" stroke="#b20e00" stroke-width="4" points="723.24,-738.16 719.5,-728.24 716.24,-738.33 723.24,-738.16"/>
</a>
</g>
<g id="a_edge17&#45;label"><a xlink:title="fmt.Sprintf &#45;&gt; fmt.(*pp).doPrintf (2976220)">
<text text-anchor="middle" x="746" y="-779.3" font-family="Times,serif" font-size="14.00"> 2976220</text>
</a>
</g>
</g>
<!-- N8 -->
<g id="node8" class="node">
<title>N8</title>
<g id="a_node8"><a xlink:title="fmt.(*pp).printArg (2976220)">
<polygon fill="#edd7d5" stroke="#b20e00" points="763,-633 673,-633 673,-589 763,-589 763,-633"/>
<text text-anchor="middle" x="718" y="-622.6" font-family="Times,serif" font-size="8.00">fmt</text>
<text text-anchor="middle" x="718" y="-613.6" font-family="Times,serif" font-size="8.00">(*pp)</text>
<text text-anchor="middle" x="718" y="-604.6" font-family="Times,serif" font-size="8.00">printArg</text>
<text text-anchor="middle" x="718" y="-595.6" font-family="Times,serif" font-size="8.00">0 of 2976220 (75.79%)</text>
</a>
</g>
</g>
<!-- N7&#45;&gt;N8 -->
<g id="edge15" class="edge">
<title>N7&#45;&gt;N8</title>
<g id="a_edge15"><a xlink:title="fmt.(*pp).doPrintf &#45;&gt; fmt.(*pp).printArg (2976220)">
<path fill="none" stroke="#b20e00" stroke-width="4" d="M718,-683.9C718,-671.89 718,-656.62 718,-643.24"/>
<polygon fill="#b20e00" stroke="#b20e00" stroke-width="4" points="721.5,-643.02 718,-633.02 714.5,-643.02 721.5,-643.02"/>
</a>
</g>
<g id="a_edge15&#45;label"><a xlink:title="fmt.(*pp).doPrintf &#45;&gt; fmt.(*pp).printArg (2976220)">
<text text-anchor="middle" x="744" y="-654.8" font-family="Times,serif" font-size="14.00"> 2976220</text>
</a>
</g>
</g>
<!-- N8&#45;&gt;N4 -->
<g id="edge16" class="edge">
<title>N8&#45;&gt;N4</title>
<g id="a_edge16"><a xlink:title="fmt.(*pp).printArg &#45;&gt; fmt.(*pp).printValue (2976220)">
<path fill="none" stroke="#b20e00" stroke-width="4" d="M718,-588.9C718,-576.89 718,-561.62 718,-548.24"/>
<polygon fill="#b20e00" stroke="#b20e00" stroke-width="4" points="721.5,-548.02 718,-538.02 714.5,-548.02 721.5,-548.02"/>
</a>
</g>
<g id="a_edge16&#45;label"><a xlink:title="fmt.(*pp).printArg &#45;&gt; fmt.(*pp).printValue (2976220)">
<text text-anchor="middle" x="744" y="-559.8" font-family="Times,serif" font-size="14.00"> 2976220</text>
</a>
</g>
</g>
<!-- N9 -->
<g id="node9" class="node">
<title>N9</title>
<g id="a_node9"><a xlink:title="net/http.(*ServeMux).ServeHTTP (3922096)">
<polygon fill="#edd5d5" stroke="#b20000" points="565,-1330 475,-1330 475,-1286 565,-1286 565,-1330"/>
<text text-anchor="middle" x="520" y="-1319.6" font-family="Times,serif" font-size="8.00">http</text>
<text text-anchor="middle" x="520" y="-1310.6" font-family="Times,serif" font-size="8.00">(*ServeMux)</text>
<text text-anchor="middle" x="520" y="-1301.6" font-family="Times,serif" font-size="8.00">ServeHTTP</text>
<text text-anchor="middle" x="520" y="-1292.6" font-family="Times,serif" font-size="8.00">0 of 3922096 (99.88%)</text>
</a>
</g>
</g>
<!-- N10 -->
<g id="node10" class="node">
<title>N10</title>
<g id="a_node10"><a xlink:title="net/http.HandlerFunc.ServeHTTP (3922096)">
<polygon fill="#edd5d5" stroke="#b20000" points="565,-1235 475,-1235 475,-1191 565,-1191 565,-1235"/>
<text text-anchor="middle" x="520" y="-1224.6" font-family="Times,serif" font-size="8.00">http</text>
<text text-anchor="middle" x="520" y="-1215.6" font-family="Times,serif" font-size="8.00">HandlerFunc</text>
<text text-anchor="middle" x="520" y="-1206.6" font-family="Times,serif" font-size="8.00">ServeHTTP</text>
<text text-anchor="middle" x="520" y="-1197.6" font-family="Times,serif" font-size="8.00">0 of 3922096 (99.88%)</text>
</a>
</g>
</g>
<!-- N9&#45;&gt;N10 -->
<g id="edge10" class="edge">
<title>N9&#45;&gt;N10</title>
<g id="a_edge10"><a xlink:title="net/http.(*ServeMux).ServeHTTP &#45;&gt; net/http.HandlerFunc.ServeHTTP (3922096)">
<path fill="none" stroke="#b20000" stroke-width="5" d="M520,-1285.9C520,-1273.89 520,-1258.62 520,-1245.24"/>
<polygon fill="#b20000" stroke="#b20000" stroke-width="5" points="524.38,-1245.02 520,-1235.02 515.63,-1245.02 524.38,-1245.02"/>
</a>
</g>
<g id="a_edge10&#45;label"><a xlink:title="net/http.(*ServeMux).ServeHTTP &#45;&gt; net/http.HandlerFunc.ServeHTTP (3922096)">
<text text-anchor="middle" x="546" y="-1256.8" font-family="Times,serif" font-size="14.00"> 3922096</text>
</a>
</g>
</g>
<!-- N10&#45;&gt;N3 -->
<g id="edge12" class="edge">
<title>N10&#45;&gt;N3</title>
<g id="a_edge12"><a xlink:title="net/http.HandlerFunc.ServeHTTP &#45;&gt; main.handle (3922096)">
<path fill="none" stroke="#b20000" stroke-width="5" d="M520,-1190.91C520,-1179.53 520,-1164.93 520,-1150.64"/>
<polygon fill="#b20000" stroke="#b20000" stroke-width="5" points="524.38,-1150.35 520,-1140.35 515.63,-1150.35 524.38,-1150.35"/>
</a>
</g>
<g id="a_edge12&#45;label"><a xlink:title="net/http.HandlerFunc.ServeHTTP &#45;&gt; main.handle (3922096)">
<text text-anchor="middle" x="546" y="-1161.8" font-family="Times,serif" font-size="14.00"> 3922096</text>
</a>
</g>
</g>
<!-- N11&#45;&gt;N9 -->
<g id="edge13" class="edge">
<title>N11&#45;&gt;N9</title>
<g id="a_edge13"><a xlink:title="net/http.serverHandler.ServeHTTP &#45;&gt; net/http.(*ServeMux).ServeHTTP (3922096)">
<path fill="none" stroke="#b20000" stroke-width="5" d="M520,-1380.9C520,-1368.89 520,-1353.62 520,-1340.24"/>
<polygon fill="#b20000" stroke="#b20000" stroke-width="5" points="524.38,-1340.02 520,-1330.02 515.63,-1340.02 524.38,-1340.02"/>
</a>
</g>
<g id="a_edge13&#45;label"><a xlink:title="net/http.serverHandler.ServeHTTP &#45;&gt; net/http.(*ServeMux).ServeHTTP (3922096)">
<text text-anchor="middle" x="546" y="-1351.8" font-family="Times,serif" font-size="14.00"> 3922096</text>
</a>
</g>
</g>
<!-- N12&#45;&gt;N2 -->
<g id="edge19" class="edge">
<title>N12&#45;&gt;N2</title>
<g id="a_edge19"><a xlink:title="reflect.(*rtype).Field &#45;&gt; reflect.(*structType).Field (1671193)">
<path fill="none" stroke="#b22800" stroke-width="3" d="M718,-383.74C718,-372.44 718,-357.87 718,-343.18"/>
<polygon fill="#b22800" stroke="#b22800" stroke-width="3" points="721.5,-343.03 718,-333.03 714.5,-343.03 721.5,-343.03"/>
</a>
</g>
<g id="a_edge19&#45;label"><a xlink:title="reflect.(*rtype).Field &#45;&gt; reflect.(*structType).Field (1671193)">
<text text-anchor="middle" x="744" y="-354.8" font-family="Times,serif" font-size="14.00"> 1671193</text>
</a>
</g>
</g>
<!-- N14 -->
<g id="node14" class="node">
<title>N14</title>
<g id="a_node14"><a xlink:title="reflect.valueInterface (1300931)">
<polygon fill="#eddcd5" stroke="#b23200" points="924,-295 834,-295 834,-259 924,-259 924,-295"/>
<text text-anchor="middle" x="879" y="-284.1" font-family="Times,serif" font-size="8.00">reflect</text>
<text text-anchor="middle" x="879" y="-275.1" font-family="Times,serif" font-size="8.00">valueInterface</text>
<text text-anchor="middle" x="879" y="-266.1" font-family="Times,serif" font-size="8.00">0 of 1300931 (33.13%)</text>
</a>
</g>
</g>
<!-- N13&#45;&gt;N14 -->
<g id="edge21" class="edge">
<title>N13&#45;&gt;N14</title>
<g id="a_edge21"><a xlink:title="reflect.Value.Interface &#45;&gt; reflect.valueInterface (1300931)">
<path fill="none" stroke="#b23200" stroke-width="2" d="M856.52,-383.74C861.1,-362.19 868.21,-328.75 873.2,-305.26"/>
<polygon fill="#b23200" stroke="#b23200" stroke-width="2" points="876.68,-305.75 875.33,-295.24 869.83,-304.3 876.68,-305.75"/>
</a>
</g>
<g id="a_edge21&#45;label"><a xlink:title="reflect.Value.Interface &#45;&gt; reflect.valueInterface (1300931)">
<text text-anchor="middle" x="890" y="-354.8" font-family="Times,serif" font-size="14.00"> 1300931</text>
</a>
</g>
</g>
<!-- N14&#45;&gt;N5 -->
<g id="edge22" class="edge">
<title>N14&#45;&gt;N5</title>
<g id="a_edge22"><a xlink:title="reflect.valueInterface &#45;&gt; reflect.packEface (1300931)">
<path fill="none" stroke="#b23200" stroke-width="2" d="M879,-258.91C879,-239.77 879,-207.84 879,-180.49"/>
<polygon fill="#b23200" stroke="#b23200" stroke-width="2" points="882.5,-180.26 879,-170.26 875.5,-180.26 882.5,-180.26"/>
</a>
</g>
<g id="a_edge22&#45;label"><a xlink:title="reflect.valueInterface &#45;&gt; reflect.packEface (1300931)">
<text text-anchor="middle" x="905" y="-191.8" font-family="Times,serif" font-size="14.00"> 1300931</text>
</a>
</g>
</g>
</g>
</g></svg>
